# xmcd
#
# Track frame offsets: 
#        150
#        19474
#        36090
#        53954
#        70896
#        90393
#        108686
#        124148
#        144036
#        161448
#        182391
#        221708
#        238555
#
# Disc length: 3388 seconds
#
# Revision: 0
# Processed by: cddbd v1.5.2PL0 Copyright (c) Steve Scherf et al.
# Submitted via: ExactAudioCopy v1.0b3
#
DISCID=af0d3a0d
DTITLE=Steven Seagal - Mojo Priest and Thunderbox
DYEAR=2006
DGENRE=Blues
TTITLE0=She Dat Pretty
TTITLE1=Red Rooster
TTITLE2=Gunfire In A Junk Joint
TTITLE3=My Time Is Numbered
TTITLE4=Dark Angel
TTITLE5=Alligator Ass
TTITLE6=Talk To My Ass
TTITLE7=Love Doctor
TTITLE8=Hoochie Coochie Man
TTITLE9=Barbeque
TTITLE10=Dust My Broom
TTITLE11=Shake
TTITLE12=Slow Boat To China
EXTD=
EXTT0=
EXTT1=
EXTT2=
EXTT3=
EXTT4=
EXTT5=
EXTT6=
EXTT7=
EXTT8=
EXTT9=
EXTT10=
EXTT11=
EXTT12=
PLAYORDER=
